<svg xmlns="http://www.w3.org/2000/svg" xmlns:xlink="http://www.w3.org/1999/xlink" width="480" zoomAndPan="magnify" viewBox="0 0 360 359.999987" height="480" preserveAspectRatio="xMidYMid meet" version="1.0"><defs><g/><clipPath id="3b85d13cbe"><path d="M 180 0 C 80.589844 0 0 80.589844 0 180 C 0 279.410156 80.589844 360 180 360 C 279.410156 360 360 279.410156 360 180 C 360 80.589844 279.410156 0 180 0 " clip-rule="nonzero"/></clipPath><clipPath id="670a551f58"><path d="M 112.121094 112.121094 L 247.878906 112.121094 L 247.878906 247.878906 L 112.121094 247.878906 Z M 112.121094 112.121094 " clip-rule="nonzero"/></clipPath><clipPath id="1996d8782b"><path d="M 180 112.121094 C 142.511719 112.121094 112.121094 142.511719 112.121094 180 C 112.121094 217.488281 142.511719 247.878906 180 247.878906 C 217.488281 247.878906 247.878906 217.488281 247.878906 180 C 247.878906 142.511719 217.488281 112.121094 180 112.121094 " clip-rule="nonzero"/></clipPath><clipPath id="a01bcb325b"><path d="M 155.980469 155.980469 L 204.019531 155.980469 L 204.019531 204.019531 L 155.980469 204.019531 Z M 155.980469 155.980469 " clip-rule="nonzero"/></clipPath><clipPath id="47da0db0dd"><path d="M 180 155.980469 C 166.734375 155.980469 155.980469 166.734375 155.980469 180 C 155.980469 193.265625 166.734375 204.019531 180 204.019531 C 193.265625 204.019531 204.019531 193.265625 204.019531 180 C 204.019531 166.734375 193.265625 155.980469 180 155.980469 " clip-rule="nonzero"/></clipPath><clipPath id="abc77da8dc"><path d="M 175.742188 175.742188 L 184.257812 175.742188 L 184.257812 184.257812 L 175.742188 184.257812 Z M 175.742188 175.742188 " clip-rule="nonzero"/></clipPath><clipPath id="0751c15f7a"><path d="M 180 175.742188 C 177.648438 175.742188 175.742188 177.648438 175.742188 180 C 175.742188 182.351562 177.648438 184.257812 180 184.257812 C 182.351562 184.257812 184.257812 182.351562 184.257812 180 C 184.257812 177.648438 182.351562 175.742188 180 175.742188 " clip-rule="nonzero"/></clipPath></defs><g clip-path="url(#3b85d13cbe)"><rect x="-36" width="432" fill="#ffffff" y="-35.999999" height="431.999984" fill-opacity="1"/></g><g clip-path="url(#670a551f58)"><g clip-path="url(#1996d8782b)"><path fill="#4a6aa9" d="M 112.121094 112.121094 L 247.878906 112.121094 L 247.878906 247.878906 L 112.121094 247.878906 Z M 112.121094 112.121094 " fill-opacity="1" fill-rule="nonzero"/></g></g><g clip-path="url(#a01bcb325b)"><g clip-path="url(#47da0db0dd)"><path fill="#ffffff" d="M 155.980469 155.980469 L 204.019531 155.980469 L 204.019531 204.019531 L 155.980469 204.019531 Z M 155.980469 155.980469 " fill-opacity="1" fill-rule="nonzero"/></g></g><g clip-path="url(#abc77da8dc)"><g clip-path="url(#0751c15f7a)"><path fill="#17181a" d="M 175.742188 175.742188 L 184.257812 175.742188 L 184.257812 184.257812 L 175.742188 184.257812 Z M 175.742188 175.742188 " fill-opacity="1" fill-rule="nonzero"/></g></g><g fill="#ffffff" fill-opacity="1"><g transform="translate(154.564796, 232.316646)"><g><path d="M 14.164062 -6.257812 C 16.742188 -7.355469 18.226562 -9.46875 18.226562 -12.488281 C 18.226562 -16.003906 15.425781 -19.40625 10.101562 -19.40625 C 4.613281 -19.40625 1.949219 -15.78125 1.949219 -11.363281 L 1.949219 0 L 6.753906 0 L 6.753906 -5.40625 L 9.523438 -5.40625 L 14 0 L 19.269531 0 Z M 6.753906 -11.472656 C 6.753906 -13.230469 7.382812 -15.480469 10.101562 -15.480469 C 12.378906 -15.480469 13.585938 -13.835938 13.585938 -12.351562 C 13.585938 -10.539062 12.269531 -9.332031 9.992188 -9.332031 L 6.753906 -9.332031 Z M 6.753906 -11.472656 "/></g></g></g><g fill="#ffffff" fill-opacity="1"><g transform="translate(175.56135, 232.316646)"><g><path d="M 23.523438 -8.152344 C 23.523438 -5.625 22.234375 -4.363281 20.394531 -4.363281 C 18.582031 -4.363281 17.292969 -5.683594 17.292969 -8.179688 L 17.292969 -19.214844 L 12.570312 -19.214844 L 12.570312 -8.152344 C 12.570312 -5.625 11.28125 -4.363281 9.46875 -4.363281 C 7.65625 -4.363281 6.339844 -5.625 6.339844 -8.152344 L 6.339844 -19.214844 L 1.621094 -19.214844 L 1.621094 -8.234375 C 1.621094 -3.074219 4.777344 0.328125 9.222656 0.328125 C 11.664062 0.328125 13.695312 -0.578125 15.125 -2.277344 C 16.46875 -0.578125 18.417969 0.328125 20.667969 0.328125 C 25.144531 0.328125 28.246094 -3.074219 28.246094 -8.234375 L 28.246094 -19.214844 L 23.523438 -19.214844 Z M 23.523438 -8.152344 "/></g></g></g></svg>